<mxfile host="app.diagrams.net" agent="Mozilla/5.0 (Windows NT 10.0; Win64; x64) AppleWebKit/537.36 (KHTML, like Gecko) Chrome/131.0.0.0 Safari/537.36" version="26.0.3">
  <diagram name="페이지-1" id="5oVvn2OXAqAv-EqxFE4a">
    <mxGraphModel dx="1434" dy="780" grid="1" gridSize="10" guides="1" tooltips="1" connect="1" arrows="1" fold="1" page="1" pageScale="1" pageWidth="1200" pageHeight="1600" math="0" shadow="0">
      <root>
        <mxCell id="0" />
        <mxCell id="1" parent="0" />
        <mxCell id="mb9hqgriTmYZ5uoK-eVJ-4" style="edgeStyle=orthogonalEdgeStyle;rounded=0;orthogonalLoop=1;jettySize=auto;html=1;exitX=1;exitY=0.5;exitDx=0;exitDy=0;entryX=1;entryY=0.5;entryDx=0;entryDy=0;" edge="1" parent="1" source="mb9hqgriTmYZ5uoK-eVJ-1" target="mb9hqgriTmYZ5uoK-eVJ-1">
          <mxGeometry relative="1" as="geometry">
            <Array as="points" />
          </mxGeometry>
        </mxCell>
        <mxCell id="mb9hqgriTmYZ5uoK-eVJ-7" style="edgeStyle=orthogonalEdgeStyle;rounded=0;orthogonalLoop=1;jettySize=auto;html=1;entryX=0;entryY=0.5;entryDx=0;entryDy=0;endArrow=none;endFill=0;" edge="1" parent="1" source="mb9hqgriTmYZ5uoK-eVJ-1" target="mb9hqgriTmYZ5uoK-eVJ-3">
          <mxGeometry relative="1" as="geometry" />
        </mxCell>
        <mxCell id="mb9hqgriTmYZ5uoK-eVJ-1" value="남자" style="whiteSpace=wrap;html=1;aspect=fixed;" vertex="1" parent="1">
          <mxGeometry x="213" y="165" width="70" height="70" as="geometry" />
        </mxCell>
        <mxCell id="mb9hqgriTmYZ5uoK-eVJ-8" style="edgeStyle=orthogonalEdgeStyle;rounded=0;orthogonalLoop=1;jettySize=auto;html=1;startArrow=none;startFill=0;endArrow=none;endFill=0;entryX=1;entryY=0.5;entryDx=0;entryDy=0;" edge="1" parent="1" source="mb9hqgriTmYZ5uoK-eVJ-2" target="mb9hqgriTmYZ5uoK-eVJ-3">
          <mxGeometry relative="1" as="geometry">
            <mxPoint x="723" y="200" as="targetPoint" />
          </mxGeometry>
        </mxCell>
        <mxCell id="mb9hqgriTmYZ5uoK-eVJ-2" value="여자" style="whiteSpace=wrap;html=1;aspect=fixed;" vertex="1" parent="1">
          <mxGeometry x="903" y="160" width="80" height="80" as="geometry" />
        </mxCell>
        <mxCell id="mb9hqgriTmYZ5uoK-eVJ-3" value="결혼" style="rhombus;whiteSpace=wrap;html=1;" vertex="1" parent="1">
          <mxGeometry x="523" y="160" width="140" height="80" as="geometry" />
        </mxCell>
        <mxCell id="mb9hqgriTmYZ5uoK-eVJ-9" value="1" style="text;html=1;align=center;verticalAlign=middle;resizable=0;points=[];autosize=1;strokeColor=none;fillColor=none;" vertex="1" parent="1">
          <mxGeometry x="493" y="158" width="30" height="30" as="geometry" />
        </mxCell>
        <mxCell id="mb9hqgriTmYZ5uoK-eVJ-10" value="1" style="text;html=1;align=center;verticalAlign=middle;resizable=0;points=[];autosize=1;strokeColor=none;fillColor=none;" vertex="1" parent="1">
          <mxGeometry x="663" y="158" width="30" height="30" as="geometry" />
        </mxCell>
        <mxCell id="mb9hqgriTmYZ5uoK-eVJ-18" style="edgeStyle=orthogonalEdgeStyle;rounded=0;orthogonalLoop=1;jettySize=auto;html=1;exitX=0.5;exitY=0;exitDx=0;exitDy=0;entryX=0.5;entryY=1;entryDx=0;entryDy=0;endArrow=none;endFill=0;" edge="1" parent="1" source="mb9hqgriTmYZ5uoK-eVJ-11" target="mb9hqgriTmYZ5uoK-eVJ-1">
          <mxGeometry relative="1" as="geometry" />
        </mxCell>
        <mxCell id="mb9hqgriTmYZ5uoK-eVJ-11" value="남ID&lt;div&gt;(PK)&lt;/div&gt;" style="ellipse;whiteSpace=wrap;html=1;" vertex="1" parent="1">
          <mxGeometry x="83" y="300" width="70" height="70" as="geometry" />
        </mxCell>
        <mxCell id="mb9hqgriTmYZ5uoK-eVJ-20" style="edgeStyle=orthogonalEdgeStyle;rounded=0;orthogonalLoop=1;jettySize=auto;html=1;entryX=0.5;entryY=1;entryDx=0;entryDy=0;endArrow=none;endFill=0;" edge="1" parent="1" source="mb9hqgriTmYZ5uoK-eVJ-12" target="mb9hqgriTmYZ5uoK-eVJ-1">
          <mxGeometry relative="1" as="geometry" />
        </mxCell>
        <mxCell id="mb9hqgriTmYZ5uoK-eVJ-12" value="이름" style="ellipse;whiteSpace=wrap;html=1;" vertex="1" parent="1">
          <mxGeometry x="173" y="300" width="70" height="70" as="geometry" />
        </mxCell>
        <mxCell id="mb9hqgriTmYZ5uoK-eVJ-22" style="edgeStyle=orthogonalEdgeStyle;rounded=0;orthogonalLoop=1;jettySize=auto;html=1;exitX=0.5;exitY=0;exitDx=0;exitDy=0;entryX=0.5;entryY=1;entryDx=0;entryDy=0;endArrow=none;endFill=0;" edge="1" parent="1" source="mb9hqgriTmYZ5uoK-eVJ-14" target="mb9hqgriTmYZ5uoK-eVJ-1">
          <mxGeometry relative="1" as="geometry" />
        </mxCell>
        <mxCell id="mb9hqgriTmYZ5uoK-eVJ-14" value="나이" style="ellipse;whiteSpace=wrap;html=1;" vertex="1" parent="1">
          <mxGeometry x="263" y="300" width="70" height="70" as="geometry" />
        </mxCell>
        <mxCell id="mb9hqgriTmYZ5uoK-eVJ-25" style="edgeStyle=orthogonalEdgeStyle;rounded=0;orthogonalLoop=1;jettySize=auto;html=1;exitX=0.5;exitY=0;exitDx=0;exitDy=0;entryX=0.5;entryY=1;entryDx=0;entryDy=0;endArrow=none;endFill=0;" edge="1" parent="1" source="mb9hqgriTmYZ5uoK-eVJ-15" target="mb9hqgriTmYZ5uoK-eVJ-1">
          <mxGeometry relative="1" as="geometry" />
        </mxCell>
        <mxCell id="mb9hqgriTmYZ5uoK-eVJ-15" value="직업" style="ellipse;whiteSpace=wrap;html=1;" vertex="1" parent="1">
          <mxGeometry x="353" y="300" width="70" height="70" as="geometry" />
        </mxCell>
        <mxCell id="mb9hqgriTmYZ5uoK-eVJ-30" style="edgeStyle=orthogonalEdgeStyle;rounded=0;orthogonalLoop=1;jettySize=auto;html=1;exitX=0.5;exitY=0;exitDx=0;exitDy=0;entryX=0.5;entryY=1;entryDx=0;entryDy=0;endArrow=none;endFill=0;" edge="1" parent="1" source="mb9hqgriTmYZ5uoK-eVJ-26" target="mb9hqgriTmYZ5uoK-eVJ-2">
          <mxGeometry relative="1" as="geometry" />
        </mxCell>
        <mxCell id="mb9hqgriTmYZ5uoK-eVJ-26" value="여ID&lt;div&gt;(PK)&lt;/div&gt;" style="ellipse;whiteSpace=wrap;html=1;" vertex="1" parent="1">
          <mxGeometry x="768" y="300" width="70" height="70" as="geometry" />
        </mxCell>
        <mxCell id="mb9hqgriTmYZ5uoK-eVJ-270" style="edgeStyle=orthogonalEdgeStyle;rounded=0;orthogonalLoop=1;jettySize=auto;html=1;endArrow=none;endFill=0;" edge="1" parent="1" source="mb9hqgriTmYZ5uoK-eVJ-27" target="mb9hqgriTmYZ5uoK-eVJ-2">
          <mxGeometry relative="1" as="geometry" />
        </mxCell>
        <mxCell id="mb9hqgriTmYZ5uoK-eVJ-27" value="이름" style="ellipse;whiteSpace=wrap;html=1;" vertex="1" parent="1">
          <mxGeometry x="868" y="300" width="70" height="70" as="geometry" />
        </mxCell>
        <mxCell id="mb9hqgriTmYZ5uoK-eVJ-271" style="edgeStyle=orthogonalEdgeStyle;rounded=0;orthogonalLoop=1;jettySize=auto;html=1;exitX=0.5;exitY=0;exitDx=0;exitDy=0;endArrow=none;endFill=0;" edge="1" parent="1" source="mb9hqgriTmYZ5uoK-eVJ-28" target="mb9hqgriTmYZ5uoK-eVJ-2">
          <mxGeometry relative="1" as="geometry" />
        </mxCell>
        <mxCell id="mb9hqgriTmYZ5uoK-eVJ-28" value="나이" style="ellipse;whiteSpace=wrap;html=1;" vertex="1" parent="1">
          <mxGeometry x="958" y="300" width="70" height="70" as="geometry" />
        </mxCell>
        <mxCell id="mb9hqgriTmYZ5uoK-eVJ-273" style="edgeStyle=orthogonalEdgeStyle;rounded=0;orthogonalLoop=1;jettySize=auto;html=1;exitX=0.5;exitY=0;exitDx=0;exitDy=0;entryX=0.5;entryY=1;entryDx=0;entryDy=0;endArrow=none;endFill=0;" edge="1" parent="1" source="mb9hqgriTmYZ5uoK-eVJ-29" target="mb9hqgriTmYZ5uoK-eVJ-2">
          <mxGeometry relative="1" as="geometry" />
        </mxCell>
        <mxCell id="mb9hqgriTmYZ5uoK-eVJ-29" value="직업" style="ellipse;whiteSpace=wrap;html=1;" vertex="1" parent="1">
          <mxGeometry x="1048" y="300" width="70" height="70" as="geometry" />
        </mxCell>
        <mxCell id="mb9hqgriTmYZ5uoK-eVJ-279" style="rounded=0;orthogonalLoop=1;jettySize=auto;html=1;exitX=0.5;exitY=0;exitDx=0;exitDy=0;entryX=0.5;entryY=1;entryDx=0;entryDy=0;endArrow=none;endFill=0;" edge="1" parent="1" source="mb9hqgriTmYZ5uoK-eVJ-222" target="mb9hqgriTmYZ5uoK-eVJ-3">
          <mxGeometry relative="1" as="geometry" />
        </mxCell>
        <mxCell id="mb9hqgriTmYZ5uoK-eVJ-222" value="여ID&lt;div&gt;(FK)&lt;/div&gt;" style="ellipse;whiteSpace=wrap;html=1;" vertex="1" parent="1">
          <mxGeometry x="683" y="280" width="70" height="70" as="geometry" />
        </mxCell>
        <mxCell id="mb9hqgriTmYZ5uoK-eVJ-283" style="rounded=0;orthogonalLoop=1;jettySize=auto;html=1;entryX=0.5;entryY=1;entryDx=0;entryDy=0;exitX=0.5;exitY=0;exitDx=0;exitDy=0;endArrow=none;endFill=0;" edge="1" parent="1" source="mb9hqgriTmYZ5uoK-eVJ-223" target="mb9hqgriTmYZ5uoK-eVJ-3">
          <mxGeometry relative="1" as="geometry" />
        </mxCell>
        <mxCell id="mb9hqgriTmYZ5uoK-eVJ-223" value="남ID&lt;div&gt;(FK)&lt;/div&gt;" style="ellipse;whiteSpace=wrap;html=1;" vertex="1" parent="1">
          <mxGeometry x="443" y="280" width="70" height="70" as="geometry" />
        </mxCell>
        <mxCell id="mb9hqgriTmYZ5uoK-eVJ-282" style="rounded=0;orthogonalLoop=1;jettySize=auto;html=1;entryX=0.5;entryY=1;entryDx=0;entryDy=0;endArrow=none;endFill=0;" edge="1" parent="1" source="mb9hqgriTmYZ5uoK-eVJ-224" target="mb9hqgriTmYZ5uoK-eVJ-3">
          <mxGeometry relative="1" as="geometry" />
        </mxCell>
        <mxCell id="mb9hqgriTmYZ5uoK-eVJ-224" value="결혼날짜" style="ellipse;whiteSpace=wrap;html=1;" vertex="1" parent="1">
          <mxGeometry x="523" y="280" width="70" height="70" as="geometry" />
        </mxCell>
        <mxCell id="mb9hqgriTmYZ5uoK-eVJ-276" style="rounded=0;orthogonalLoop=1;jettySize=auto;html=1;entryX=0.5;entryY=1;entryDx=0;entryDy=0;endArrow=none;endFill=0;" edge="1" parent="1" source="mb9hqgriTmYZ5uoK-eVJ-225" target="mb9hqgriTmYZ5uoK-eVJ-3">
          <mxGeometry relative="1" as="geometry" />
        </mxCell>
        <mxCell id="mb9hqgriTmYZ5uoK-eVJ-225" value="성혼ID&lt;div&gt;(PK)&lt;/div&gt;" style="ellipse;whiteSpace=wrap;html=1;" vertex="1" parent="1">
          <mxGeometry x="603" y="280" width="70" height="70" as="geometry" />
        </mxCell>
        <mxCell id="mb9hqgriTmYZ5uoK-eVJ-252" value="" style="edgeStyle=orthogonalEdgeStyle;rounded=0;orthogonalLoop=1;jettySize=auto;html=1;endArrow=ERone;endFill=0;startArrow=ERone;startFill=0;" edge="1" parent="1" source="mb9hqgriTmYZ5uoK-eVJ-226" target="mb9hqgriTmYZ5uoK-eVJ-239">
          <mxGeometry relative="1" as="geometry" />
        </mxCell>
        <mxCell id="mb9hqgriTmYZ5uoK-eVJ-226" value="남자" style="shape=table;startSize=30;container=1;collapsible=1;childLayout=tableLayout;fixedRows=1;rowLines=0;fontStyle=1;align=center;resizeLast=1;html=1;" vertex="1" parent="1">
          <mxGeometry x="233" y="500" width="180" height="150" as="geometry" />
        </mxCell>
        <mxCell id="mb9hqgriTmYZ5uoK-eVJ-227" value="" style="shape=tableRow;horizontal=0;startSize=0;swimlaneHead=0;swimlaneBody=0;fillColor=none;collapsible=0;dropTarget=0;points=[[0,0.5],[1,0.5]];portConstraint=eastwest;top=0;left=0;right=0;bottom=1;" vertex="1" parent="mb9hqgriTmYZ5uoK-eVJ-226">
          <mxGeometry y="30" width="180" height="30" as="geometry" />
        </mxCell>
        <mxCell id="mb9hqgriTmYZ5uoK-eVJ-228" value="PK" style="shape=partialRectangle;connectable=0;fillColor=none;top=0;left=0;bottom=0;right=0;fontStyle=1;overflow=hidden;whiteSpace=wrap;html=1;" vertex="1" parent="mb9hqgriTmYZ5uoK-eVJ-227">
          <mxGeometry width="30" height="30" as="geometry">
            <mxRectangle width="30" height="30" as="alternateBounds" />
          </mxGeometry>
        </mxCell>
        <mxCell id="mb9hqgriTmYZ5uoK-eVJ-229" value="남자ID" style="shape=partialRectangle;connectable=0;fillColor=none;top=0;left=0;bottom=0;right=0;align=left;spacingLeft=6;fontStyle=5;overflow=hidden;whiteSpace=wrap;html=1;" vertex="1" parent="mb9hqgriTmYZ5uoK-eVJ-227">
          <mxGeometry x="30" width="150" height="30" as="geometry">
            <mxRectangle width="150" height="30" as="alternateBounds" />
          </mxGeometry>
        </mxCell>
        <mxCell id="mb9hqgriTmYZ5uoK-eVJ-230" value="" style="shape=tableRow;horizontal=0;startSize=0;swimlaneHead=0;swimlaneBody=0;fillColor=none;collapsible=0;dropTarget=0;points=[[0,0.5],[1,0.5]];portConstraint=eastwest;top=0;left=0;right=0;bottom=0;" vertex="1" parent="mb9hqgriTmYZ5uoK-eVJ-226">
          <mxGeometry y="60" width="180" height="30" as="geometry" />
        </mxCell>
        <mxCell id="mb9hqgriTmYZ5uoK-eVJ-231" value="" style="shape=partialRectangle;connectable=0;fillColor=none;top=0;left=0;bottom=0;right=0;editable=1;overflow=hidden;whiteSpace=wrap;html=1;" vertex="1" parent="mb9hqgriTmYZ5uoK-eVJ-230">
          <mxGeometry width="30" height="30" as="geometry">
            <mxRectangle width="30" height="30" as="alternateBounds" />
          </mxGeometry>
        </mxCell>
        <mxCell id="mb9hqgriTmYZ5uoK-eVJ-232" value="이름" style="shape=partialRectangle;connectable=0;fillColor=none;top=0;left=0;bottom=0;right=0;align=left;spacingLeft=6;overflow=hidden;whiteSpace=wrap;html=1;" vertex="1" parent="mb9hqgriTmYZ5uoK-eVJ-230">
          <mxGeometry x="30" width="150" height="30" as="geometry">
            <mxRectangle width="150" height="30" as="alternateBounds" />
          </mxGeometry>
        </mxCell>
        <mxCell id="mb9hqgriTmYZ5uoK-eVJ-233" value="" style="shape=tableRow;horizontal=0;startSize=0;swimlaneHead=0;swimlaneBody=0;fillColor=none;collapsible=0;dropTarget=0;points=[[0,0.5],[1,0.5]];portConstraint=eastwest;top=0;left=0;right=0;bottom=0;" vertex="1" parent="mb9hqgriTmYZ5uoK-eVJ-226">
          <mxGeometry y="90" width="180" height="30" as="geometry" />
        </mxCell>
        <mxCell id="mb9hqgriTmYZ5uoK-eVJ-234" value="" style="shape=partialRectangle;connectable=0;fillColor=none;top=0;left=0;bottom=0;right=0;editable=1;overflow=hidden;whiteSpace=wrap;html=1;" vertex="1" parent="mb9hqgriTmYZ5uoK-eVJ-233">
          <mxGeometry width="30" height="30" as="geometry">
            <mxRectangle width="30" height="30" as="alternateBounds" />
          </mxGeometry>
        </mxCell>
        <mxCell id="mb9hqgriTmYZ5uoK-eVJ-235" value="나이" style="shape=partialRectangle;connectable=0;fillColor=none;top=0;left=0;bottom=0;right=0;align=left;spacingLeft=6;overflow=hidden;whiteSpace=wrap;html=1;" vertex="1" parent="mb9hqgriTmYZ5uoK-eVJ-233">
          <mxGeometry x="30" width="150" height="30" as="geometry">
            <mxRectangle width="150" height="30" as="alternateBounds" />
          </mxGeometry>
        </mxCell>
        <mxCell id="mb9hqgriTmYZ5uoK-eVJ-236" value="" style="shape=tableRow;horizontal=0;startSize=0;swimlaneHead=0;swimlaneBody=0;fillColor=none;collapsible=0;dropTarget=0;points=[[0,0.5],[1,0.5]];portConstraint=eastwest;top=0;left=0;right=0;bottom=0;" vertex="1" parent="mb9hqgriTmYZ5uoK-eVJ-226">
          <mxGeometry y="120" width="180" height="30" as="geometry" />
        </mxCell>
        <mxCell id="mb9hqgriTmYZ5uoK-eVJ-237" value="" style="shape=partialRectangle;connectable=0;fillColor=none;top=0;left=0;bottom=0;right=0;editable=1;overflow=hidden;whiteSpace=wrap;html=1;" vertex="1" parent="mb9hqgriTmYZ5uoK-eVJ-236">
          <mxGeometry width="30" height="30" as="geometry">
            <mxRectangle width="30" height="30" as="alternateBounds" />
          </mxGeometry>
        </mxCell>
        <mxCell id="mb9hqgriTmYZ5uoK-eVJ-238" value="직업" style="shape=partialRectangle;connectable=0;fillColor=none;top=0;left=0;bottom=0;right=0;align=left;spacingLeft=6;overflow=hidden;whiteSpace=wrap;html=1;" vertex="1" parent="mb9hqgriTmYZ5uoK-eVJ-236">
          <mxGeometry x="30" width="150" height="30" as="geometry">
            <mxRectangle width="150" height="30" as="alternateBounds" />
          </mxGeometry>
        </mxCell>
        <mxCell id="mb9hqgriTmYZ5uoK-eVJ-266" value="" style="edgeStyle=orthogonalEdgeStyle;rounded=0;orthogonalLoop=1;jettySize=auto;html=1;endArrow=ERone;endFill=0;startArrow=ERone;startFill=0;" edge="1" parent="1" source="mb9hqgriTmYZ5uoK-eVJ-239" target="mb9hqgriTmYZ5uoK-eVJ-253">
          <mxGeometry relative="1" as="geometry" />
        </mxCell>
        <mxCell id="mb9hqgriTmYZ5uoK-eVJ-239" value="결혼" style="shape=table;startSize=30;container=1;collapsible=1;childLayout=tableLayout;fixedRows=1;rowLines=0;fontStyle=1;align=center;resizeLast=1;html=1;" vertex="1" parent="1">
          <mxGeometry x="523" y="500" width="180" height="150" as="geometry" />
        </mxCell>
        <mxCell id="mb9hqgriTmYZ5uoK-eVJ-240" value="" style="shape=tableRow;horizontal=0;startSize=0;swimlaneHead=0;swimlaneBody=0;fillColor=none;collapsible=0;dropTarget=0;points=[[0,0.5],[1,0.5]];portConstraint=eastwest;top=0;left=0;right=0;bottom=1;" vertex="1" parent="mb9hqgriTmYZ5uoK-eVJ-239">
          <mxGeometry y="30" width="180" height="30" as="geometry" />
        </mxCell>
        <mxCell id="mb9hqgriTmYZ5uoK-eVJ-241" value="PK" style="shape=partialRectangle;connectable=0;fillColor=none;top=0;left=0;bottom=0;right=0;fontStyle=1;overflow=hidden;whiteSpace=wrap;html=1;" vertex="1" parent="mb9hqgriTmYZ5uoK-eVJ-240">
          <mxGeometry width="30" height="30" as="geometry">
            <mxRectangle width="30" height="30" as="alternateBounds" />
          </mxGeometry>
        </mxCell>
        <mxCell id="mb9hqgriTmYZ5uoK-eVJ-242" value="성혼ID" style="shape=partialRectangle;connectable=0;fillColor=none;top=0;left=0;bottom=0;right=0;align=left;spacingLeft=6;fontStyle=5;overflow=hidden;whiteSpace=wrap;html=1;" vertex="1" parent="mb9hqgriTmYZ5uoK-eVJ-240">
          <mxGeometry x="30" width="150" height="30" as="geometry">
            <mxRectangle width="150" height="30" as="alternateBounds" />
          </mxGeometry>
        </mxCell>
        <mxCell id="mb9hqgriTmYZ5uoK-eVJ-243" value="" style="shape=tableRow;horizontal=0;startSize=0;swimlaneHead=0;swimlaneBody=0;fillColor=none;collapsible=0;dropTarget=0;points=[[0,0.5],[1,0.5]];portConstraint=eastwest;top=0;left=0;right=0;bottom=0;" vertex="1" parent="mb9hqgriTmYZ5uoK-eVJ-239">
          <mxGeometry y="60" width="180" height="30" as="geometry" />
        </mxCell>
        <mxCell id="mb9hqgriTmYZ5uoK-eVJ-244" value="FK" style="shape=partialRectangle;connectable=0;fillColor=none;top=0;left=0;bottom=0;right=0;editable=1;overflow=hidden;whiteSpace=wrap;html=1;" vertex="1" parent="mb9hqgriTmYZ5uoK-eVJ-243">
          <mxGeometry width="30" height="30" as="geometry">
            <mxRectangle width="30" height="30" as="alternateBounds" />
          </mxGeometry>
        </mxCell>
        <mxCell id="mb9hqgriTmYZ5uoK-eVJ-245" value="남자ID" style="shape=partialRectangle;connectable=0;fillColor=none;top=0;left=0;bottom=0;right=0;align=left;spacingLeft=6;overflow=hidden;whiteSpace=wrap;html=1;" vertex="1" parent="mb9hqgriTmYZ5uoK-eVJ-243">
          <mxGeometry x="30" width="150" height="30" as="geometry">
            <mxRectangle width="150" height="30" as="alternateBounds" />
          </mxGeometry>
        </mxCell>
        <mxCell id="mb9hqgriTmYZ5uoK-eVJ-246" value="" style="shape=tableRow;horizontal=0;startSize=0;swimlaneHead=0;swimlaneBody=0;fillColor=none;collapsible=0;dropTarget=0;points=[[0,0.5],[1,0.5]];portConstraint=eastwest;top=0;left=0;right=0;bottom=0;" vertex="1" parent="mb9hqgriTmYZ5uoK-eVJ-239">
          <mxGeometry y="90" width="180" height="30" as="geometry" />
        </mxCell>
        <mxCell id="mb9hqgriTmYZ5uoK-eVJ-247" value="FK" style="shape=partialRectangle;connectable=0;fillColor=none;top=0;left=0;bottom=0;right=0;editable=1;overflow=hidden;whiteSpace=wrap;html=1;" vertex="1" parent="mb9hqgriTmYZ5uoK-eVJ-246">
          <mxGeometry width="30" height="30" as="geometry">
            <mxRectangle width="30" height="30" as="alternateBounds" />
          </mxGeometry>
        </mxCell>
        <mxCell id="mb9hqgriTmYZ5uoK-eVJ-248" value="여자ID" style="shape=partialRectangle;connectable=0;fillColor=none;top=0;left=0;bottom=0;right=0;align=left;spacingLeft=6;overflow=hidden;whiteSpace=wrap;html=1;" vertex="1" parent="mb9hqgriTmYZ5uoK-eVJ-246">
          <mxGeometry x="30" width="150" height="30" as="geometry">
            <mxRectangle width="150" height="30" as="alternateBounds" />
          </mxGeometry>
        </mxCell>
        <mxCell id="mb9hqgriTmYZ5uoK-eVJ-249" value="" style="shape=tableRow;horizontal=0;startSize=0;swimlaneHead=0;swimlaneBody=0;fillColor=none;collapsible=0;dropTarget=0;points=[[0,0.5],[1,0.5]];portConstraint=eastwest;top=0;left=0;right=0;bottom=0;" vertex="1" parent="mb9hqgriTmYZ5uoK-eVJ-239">
          <mxGeometry y="120" width="180" height="30" as="geometry" />
        </mxCell>
        <mxCell id="mb9hqgriTmYZ5uoK-eVJ-250" value="" style="shape=partialRectangle;connectable=0;fillColor=none;top=0;left=0;bottom=0;right=0;editable=1;overflow=hidden;whiteSpace=wrap;html=1;" vertex="1" parent="mb9hqgriTmYZ5uoK-eVJ-249">
          <mxGeometry width="30" height="30" as="geometry">
            <mxRectangle width="30" height="30" as="alternateBounds" />
          </mxGeometry>
        </mxCell>
        <mxCell id="mb9hqgriTmYZ5uoK-eVJ-251" value="결혼날짜" style="shape=partialRectangle;connectable=0;fillColor=none;top=0;left=0;bottom=0;right=0;align=left;spacingLeft=6;overflow=hidden;whiteSpace=wrap;html=1;" vertex="1" parent="mb9hqgriTmYZ5uoK-eVJ-249">
          <mxGeometry x="30" width="150" height="30" as="geometry">
            <mxRectangle width="150" height="30" as="alternateBounds" />
          </mxGeometry>
        </mxCell>
        <mxCell id="mb9hqgriTmYZ5uoK-eVJ-253" value="여자" style="shape=table;startSize=30;container=1;collapsible=1;childLayout=tableLayout;fixedRows=1;rowLines=0;fontStyle=1;align=center;resizeLast=1;html=1;" vertex="1" parent="1">
          <mxGeometry x="813" y="500" width="180" height="150" as="geometry" />
        </mxCell>
        <mxCell id="mb9hqgriTmYZ5uoK-eVJ-254" value="" style="shape=tableRow;horizontal=0;startSize=0;swimlaneHead=0;swimlaneBody=0;fillColor=none;collapsible=0;dropTarget=0;points=[[0,0.5],[1,0.5]];portConstraint=eastwest;top=0;left=0;right=0;bottom=1;" vertex="1" parent="mb9hqgriTmYZ5uoK-eVJ-253">
          <mxGeometry y="30" width="180" height="30" as="geometry" />
        </mxCell>
        <mxCell id="mb9hqgriTmYZ5uoK-eVJ-255" value="PK" style="shape=partialRectangle;connectable=0;fillColor=none;top=0;left=0;bottom=0;right=0;fontStyle=1;overflow=hidden;whiteSpace=wrap;html=1;" vertex="1" parent="mb9hqgriTmYZ5uoK-eVJ-254">
          <mxGeometry width="30" height="30" as="geometry">
            <mxRectangle width="30" height="30" as="alternateBounds" />
          </mxGeometry>
        </mxCell>
        <mxCell id="mb9hqgriTmYZ5uoK-eVJ-256" value="여자ID" style="shape=partialRectangle;connectable=0;fillColor=none;top=0;left=0;bottom=0;right=0;align=left;spacingLeft=6;fontStyle=5;overflow=hidden;whiteSpace=wrap;html=1;" vertex="1" parent="mb9hqgriTmYZ5uoK-eVJ-254">
          <mxGeometry x="30" width="150" height="30" as="geometry">
            <mxRectangle width="150" height="30" as="alternateBounds" />
          </mxGeometry>
        </mxCell>
        <mxCell id="mb9hqgriTmYZ5uoK-eVJ-257" value="" style="shape=tableRow;horizontal=0;startSize=0;swimlaneHead=0;swimlaneBody=0;fillColor=none;collapsible=0;dropTarget=0;points=[[0,0.5],[1,0.5]];portConstraint=eastwest;top=0;left=0;right=0;bottom=0;" vertex="1" parent="mb9hqgriTmYZ5uoK-eVJ-253">
          <mxGeometry y="60" width="180" height="30" as="geometry" />
        </mxCell>
        <mxCell id="mb9hqgriTmYZ5uoK-eVJ-258" value="" style="shape=partialRectangle;connectable=0;fillColor=none;top=0;left=0;bottom=0;right=0;editable=1;overflow=hidden;whiteSpace=wrap;html=1;" vertex="1" parent="mb9hqgriTmYZ5uoK-eVJ-257">
          <mxGeometry width="30" height="30" as="geometry">
            <mxRectangle width="30" height="30" as="alternateBounds" />
          </mxGeometry>
        </mxCell>
        <mxCell id="mb9hqgriTmYZ5uoK-eVJ-259" value="이름" style="shape=partialRectangle;connectable=0;fillColor=none;top=0;left=0;bottom=0;right=0;align=left;spacingLeft=6;overflow=hidden;whiteSpace=wrap;html=1;" vertex="1" parent="mb9hqgriTmYZ5uoK-eVJ-257">
          <mxGeometry x="30" width="150" height="30" as="geometry">
            <mxRectangle width="150" height="30" as="alternateBounds" />
          </mxGeometry>
        </mxCell>
        <mxCell id="mb9hqgriTmYZ5uoK-eVJ-260" value="" style="shape=tableRow;horizontal=0;startSize=0;swimlaneHead=0;swimlaneBody=0;fillColor=none;collapsible=0;dropTarget=0;points=[[0,0.5],[1,0.5]];portConstraint=eastwest;top=0;left=0;right=0;bottom=0;" vertex="1" parent="mb9hqgriTmYZ5uoK-eVJ-253">
          <mxGeometry y="90" width="180" height="30" as="geometry" />
        </mxCell>
        <mxCell id="mb9hqgriTmYZ5uoK-eVJ-261" value="" style="shape=partialRectangle;connectable=0;fillColor=none;top=0;left=0;bottom=0;right=0;editable=1;overflow=hidden;whiteSpace=wrap;html=1;" vertex="1" parent="mb9hqgriTmYZ5uoK-eVJ-260">
          <mxGeometry width="30" height="30" as="geometry">
            <mxRectangle width="30" height="30" as="alternateBounds" />
          </mxGeometry>
        </mxCell>
        <mxCell id="mb9hqgriTmYZ5uoK-eVJ-262" value="나이" style="shape=partialRectangle;connectable=0;fillColor=none;top=0;left=0;bottom=0;right=0;align=left;spacingLeft=6;overflow=hidden;whiteSpace=wrap;html=1;" vertex="1" parent="mb9hqgriTmYZ5uoK-eVJ-260">
          <mxGeometry x="30" width="150" height="30" as="geometry">
            <mxRectangle width="150" height="30" as="alternateBounds" />
          </mxGeometry>
        </mxCell>
        <mxCell id="mb9hqgriTmYZ5uoK-eVJ-263" value="" style="shape=tableRow;horizontal=0;startSize=0;swimlaneHead=0;swimlaneBody=0;fillColor=none;collapsible=0;dropTarget=0;points=[[0,0.5],[1,0.5]];portConstraint=eastwest;top=0;left=0;right=0;bottom=0;" vertex="1" parent="mb9hqgriTmYZ5uoK-eVJ-253">
          <mxGeometry y="120" width="180" height="30" as="geometry" />
        </mxCell>
        <mxCell id="mb9hqgriTmYZ5uoK-eVJ-264" value="" style="shape=partialRectangle;connectable=0;fillColor=none;top=0;left=0;bottom=0;right=0;editable=1;overflow=hidden;whiteSpace=wrap;html=1;" vertex="1" parent="mb9hqgriTmYZ5uoK-eVJ-263">
          <mxGeometry width="30" height="30" as="geometry">
            <mxRectangle width="30" height="30" as="alternateBounds" />
          </mxGeometry>
        </mxCell>
        <mxCell id="mb9hqgriTmYZ5uoK-eVJ-265" value="직업" style="shape=partialRectangle;connectable=0;fillColor=none;top=0;left=0;bottom=0;right=0;align=left;spacingLeft=6;overflow=hidden;whiteSpace=wrap;html=1;" vertex="1" parent="mb9hqgriTmYZ5uoK-eVJ-263">
          <mxGeometry x="30" width="150" height="30" as="geometry">
            <mxRectangle width="150" height="30" as="alternateBounds" />
          </mxGeometry>
        </mxCell>
        <mxCell id="mb9hqgriTmYZ5uoK-eVJ-280" value="1" style="text;html=1;align=center;verticalAlign=middle;resizable=0;points=[];autosize=1;strokeColor=none;fillColor=none;" vertex="1" parent="1">
          <mxGeometry x="293" y="158" width="30" height="30" as="geometry" />
        </mxCell>
        <mxCell id="mb9hqgriTmYZ5uoK-eVJ-281" value="1" style="text;html=1;align=center;verticalAlign=middle;resizable=0;points=[];autosize=1;strokeColor=none;fillColor=none;" vertex="1" parent="1">
          <mxGeometry x="858" y="160" width="30" height="30" as="geometry" />
        </mxCell>
      </root>
    </mxGraphModel>
  </diagram>
</mxfile>
